<svg width="100" height="50" viewBox="0 0 100 50" fill="none" xmlns="http://www.w3.org/2000/svg">
<path d="M31.5 11.1998C31.2 10.8998 31 10.4998 31 9.9998C31 9.4998 31.2 9.0998 31.5 8.7998C31.8 8.4998 32.2 8.2998 32.7 8.2998C33.2 8.2998 33.8 8.5998 34.1 8.9998L33.5 9.3998C33.4 9.1998 33.1 8.9998 32.8 8.9998C32.5 8.9998 32.3 8.9998 32.1 9.2998C31.9 9.4998 31.9 9.6998 31.9 9.9998C31.9 10.2998 31.9 10.4998 32.1 10.6998C32.3 10.8998 32.5 10.9998 32.8 10.9998C33.1 10.9998 33.4 10.8998 33.5 10.5998L34.1 10.9998C33.8 11.4998 33.3 11.6998 32.7 11.6998C32.1 11.6998 31.8 11.4998 31.5 11.1998Z" fill="#EC1C24"/>
<path d="M35.9998 8.4C36.4998 8.4 36.7998 8.6 37.1998 8.9C37.4998 9.2 37.6998 9.6 37.6998 10.1C37.6998 10.6 37.4998 11 37.1998 11.3C36.8998 11.6 36.4998 11.8 35.9998 11.8C35.4998 11.8 35.1998 11.6 34.7998 11.3C34.4998 11 34.2998 10.6 34.2998 10.1C34.2998 9.6 34.4998 9.2 34.7998 8.9C35.0998 8.6 35.4998 8.4 35.9998 8.4ZM35.9998 11C36.2998 11 36.4998 11 36.6998 10.7C36.8998 10.4 36.9998 10.3 36.9998 10C36.9998 9.7 36.9998 9.5 36.6998 9.3C36.3998 9.1 36.2998 9 35.9998 9C35.6998 9 35.4998 9 35.2998 9.3C35.0998 9.6 34.9998 9.7 34.9998 10C34.9998 10.3 34.9998 10.5 35.2998 10.7C35.5998 10.9 35.6998 11 35.9998 11ZM35.9998 8.2H35.1998L35.5998 7.6H36.1998L36.5998 8.2H35.9998ZM36.3998 7.8C36.3998 7.5 36.3998 7.5 36.5998 7.4C36.5998 7.4 36.4998 7.4 36.3998 7.5H35.9998C36.0998 7.1 36.2998 7 36.5998 7C36.8998 7 37.0998 7.1 37.0998 7.4C37.0998 7.7 37.0998 7.7 36.8998 7.7C36.8998 7.7 36.8998 7.7 36.8998 7.9H36.4998L36.3998 7.8Z" fill="#EC1C24"/>
<path d="M39.7996 8.5H40.4996V11.7H39.9996L38.7996 10V11.7H38.0996V8.5H38.5996L39.7996 10.2V8.5Z" fill="#EC1C24"/>
<path d="M44.2 9.8998V10.1998C44.2 10.6998 44.1 11.0998 43.8 11.2998C43.5 11.5998 43.1 11.6998 42.7 11.6998C42.3 11.6998 41.8 11.4998 41.5 11.1998C41.2 10.8998 41 10.4998 41 9.9998C41 9.4998 41.2 9.0998 41.5 8.7998C41.8 8.4998 42.2 8.2998 42.7 8.2998C43.2 8.2998 43.8 8.5998 44.1 8.9998L43.5 9.3998C43.4 9.1998 43.1 8.9998 42.7 8.9998C42.3 8.9998 42.2 8.9998 42 9.2998C41.8 9.5998 41.7 9.6998 41.7 9.9998C41.7 10.2998 41.7 10.4998 42 10.6998C42.2 10.8998 42.4 10.9998 42.7 10.9998C43 10.9998 43.4 10.7998 43.5 10.4998H42.7V9.8998H44.3H44.2Z" fill="#EC1C24"/>
<path d="M47.8996 8.5V9.2H47.0996V11.7H46.3996V9.2H45.5996V8.5H47.9996H47.8996Z" fill="#EC1C24"/>
<path d="M49.9002 8.5H50.6002V11.7H49.9002V10.4H48.9002V11.7H48.2002V8.5H48.9002V9.7H49.9002V8.5Z" fill="#EC1C24"/>
<path d="M52.7 8.4C53.2 8.4 53.5 8.6 53.9 8.9C54.2 9.2 54.4 9.6 54.4 10.1C54.4 10.6 54.2 11 53.9 11.3C53.6 11.6 53.2 11.8 52.7 11.8C52.2 11.8 51.9 11.6 51.5 11.3C51.2 11 51 10.6 51 10.1C51 9.6 51.2 9.2 51.5 8.9C51.8 8.6 52.2 8.4 52.7 8.4ZM52.7 11C53 11 53.2 11 53.4 10.7C53.6 10.4 53.7 10.3 53.7 10C53.7 9.7 53.7 9.5 53.4 9.3C53.1 9.1 53 9 52.7 9C52.4 9 52.2 9 52 9.3C51.8 9.6 51.7 9.7 51.7 10C51.7 10.3 51.7 10.5 52 10.7C52.3 10.9 52.4 11 52.7 11ZM52.7 8L52.5 8.2H51.8L52.3 7.5H53L53.5 8.2H52.8L52.6 8H52.7Z" fill="#EC1C24"/>
<path d="M56.4998 8.5H57.1998V11.7H56.6998L55.4998 10V11.7H54.7998V8.5H55.2998L56.4998 10.2V8.5Z" fill="#EC1C24"/>
<path d="M60.9002 9.8998V10.1998C60.9002 10.6998 60.8002 11.0998 60.5002 11.2998C60.2002 11.5998 59.8002 11.6998 59.4002 11.6998C59.0002 11.6998 58.5002 11.4998 58.2002 11.1998C57.9002 10.8998 57.7002 10.4998 57.7002 9.9998C57.7002 9.4998 57.9002 9.0998 58.2002 8.7998C58.5002 8.4998 58.9002 8.2998 59.4002 8.2998C59.9002 8.2998 60.5002 8.5998 60.8002 8.9998L60.2002 9.3998C60.1002 9.1998 59.8002 8.9998 59.4002 8.9998C59.0002 8.9998 58.9002 8.9998 58.7002 9.2998C58.5002 9.5998 58.4002 9.6998 58.4002 9.9998C58.4002 10.2998 58.4002 10.4998 58.7002 10.6998C58.9002 10.8998 59.1002 10.9998 59.4002 10.9998C59.7002 10.9998 60.1002 10.7998 60.2002 10.4998H59.4002V9.8998H61.0002H60.9002Z" fill="#EC1C24"/>
<path d="M64.5998 8.5V9.2H63.7998V11.7H63.0998V9.2H62.2998V8.5H64.6998H64.5998Z" fill="#EC1C24"/>
<path d="M64.9004 8.5H65.6004V11.7H64.9004V8.5Z" fill="#EC1C24"/>
<path d="M67.9998 8.5H68.6998V11.7H68.1998L66.9998 10V11.7H66.2998V8.5H66.7998L67.9998 10.2V8.5Z" fill="#EC1C24"/>
<path d="M9.1 16.6001C10.1 16.6001 11 17.0001 11.7 17.7001C12.4 18.4001 12.7 19.3001 12.7 20.3001C12.7 21.3001 12.4 22.2001 11.7 22.9001C11 23.6001 10.2 24.0001 9.1 24.0001H6.1V21.1001H5.5V19.7001H6.1V16.6001H9.1ZM9.1 22.4001C9.7 22.4001 10.2 22.2001 10.5 21.8001C10.9 21.4001 11 20.9001 11 20.3001C11 19.7001 10.8 19.2001 10.5 18.8001C10.1 18.4001 9.7 18.2001 9.1 18.2001H7.8V19.7001H9.2V21.1001H7.8V22.4001H9.1Z" fill="#EC1C24"/>
<path d="M18.0998 24.0002L17.6998 22.8002H14.9998L14.5998 24.0002H12.7998L15.2998 16.6002H17.4998L19.9998 24.0002H18.1998H18.0998ZM15.7998 16.1002C15.7998 15.4002 15.9998 15.3002 16.2998 15.2002C16.2998 15.2002 16.4998 15.2002 16.3998 15.2002C16.3998 15.2002 16.3998 15.2002 16.3998 15.1002C16.3998 15.0002 16.3998 15.0002 16.1998 15.0002C15.9998 15.0002 15.8998 15.0002 15.7998 15.3002L14.7998 15.0002C15.0998 14.4002 15.4998 14.2002 16.1998 14.2002C16.8998 14.2002 17.3998 14.5002 17.3998 15.1002C17.3998 15.7002 17.1998 15.8002 16.8998 15.9002C16.7998 15.9002 16.6998 16.0002 16.6998 16.3002H15.5998L15.7998 16.1002ZM15.4998 21.3002H17.1998L16.2998 18.6002L15.3998 21.3002H15.4998Z" fill="#EC1C24"/>
<path d="M24.7 16.6001H26.4V24.0001H25.1L22.2 20.0001V24.0001H20.5V16.6001H21.8L24.7 20.6001V16.6001Z" fill="#EC1C24"/>
<path d="M35.0004 19.9001V20.5001C35.0004 21.6001 34.7004 22.5001 34.0004 23.2001C33.3004 23.9001 32.4004 24.2001 31.4004 24.2001C30.4004 24.2001 29.3004 23.8001 28.5004 23.1001C27.8004 22.4001 27.4004 21.5001 27.4004 20.4001C27.4004 19.3001 27.8004 18.4001 28.5004 17.7001C29.2004 17.0001 30.2004 16.6001 31.3004 16.6001C32.4004 16.6001 33.9004 17.3001 34.5004 18.3001L33.1004 19.1001C32.8004 18.6001 32.1004 18.2001 31.3004 18.2001C30.5004 18.2001 30.1004 18.4001 29.7004 18.8001C29.3004 19.2001 29.1004 19.8001 29.1004 20.4001C29.1004 21.0001 29.3004 21.6001 29.7004 22.0001C30.1004 22.4001 30.7004 22.6001 31.4004 22.6001C32.1004 22.6001 33.0004 22.2001 33.3004 21.5001H31.3004V20.0001H35.0004V19.9001Z" fill="#EC1C24"/>
<path d="M44.0996 21.8001C44.0996 22.4001 43.8996 23.0001 43.3996 23.4001C42.8996 23.8001 42.3996 24.0001 41.6996 24.0001H38.5996V16.6001H41.4996C42.1996 16.6001 42.6996 16.8001 43.1996 17.2001C43.6996 17.6001 43.8996 18.1001 43.8996 18.7001C43.8996 19.3001 43.6996 19.8001 43.2996 20.1001C43.8996 20.5001 44.1996 21.0001 44.1996 21.8001H44.0996ZM40.2996 18.2001V19.5001H41.4996C41.8996 19.5001 42.0996 19.2001 42.0996 18.8001C42.0996 18.4001 41.7996 18.1001 41.4996 18.1001H40.2996V18.2001ZM41.6996 22.4001C42.0996 22.4001 42.3996 22.1001 42.3996 21.7001C42.3996 21.3001 42.0996 21.0001 41.6996 21.0001H40.2996V22.4001H41.6996Z" fill="#EC1C24"/>
<path d="M48.5002 16.4003C49.6002 16.4003 50.5002 16.8003 51.2002 17.5003C51.9002 18.2003 52.3002 19.1003 52.3002 20.2003C52.3002 21.3003 51.9002 22.2003 51.2002 22.9003C50.4002 23.6003 49.5002 24.0003 48.5002 24.0003C47.5002 24.0003 46.5002 23.6003 45.8002 22.9003C45.1002 22.2003 44.7002 21.3003 44.7002 20.2003C44.7002 19.1003 45.1002 18.2003 45.8002 17.5003C46.6002 16.8003 47.5002 16.4003 48.5002 16.4003ZM48.5002 22.4003C49.1002 22.4003 49.6002 22.2003 50.0002 21.8003C50.4002 21.4003 50.6002 20.9003 50.6002 20.2003C50.6002 19.5003 50.4002 19.0003 50.0002 18.6003C49.6002 18.2003 49.1002 18.0003 48.5002 18.0003C47.9002 18.0003 47.4002 18.2003 47.0002 18.6003C46.6002 19.0003 46.4002 19.5003 46.4002 20.2003C46.4002 20.9003 46.6002 21.4003 47.0002 21.8003C47.4002 22.2003 47.9002 22.4003 48.5002 22.4003ZM48.5002 15.3003L48.2002 15.8003H46.8002L47.8002 14.3003H49.2002L50.2002 15.8003H48.8002L48.5002 15.3003ZM47.8002 26.2003C47.4002 25.8003 47.4002 25.3003 47.8002 24.9003C48.2002 24.5003 48.8002 24.5003 49.1002 24.9003C49.5002 25.3003 49.5002 25.8003 49.1002 26.2003C48.7002 26.5003 48.2002 26.5003 47.8002 26.2003Z" fill="#EC1C24"/>
<path d="M60.9004 16.6001V18.2001H59.0004V24.0001H57.3004V18.2001H55.4004V16.6001H60.9004Z" fill="#EC1C24"/>
<path d="M61.9004 16.1002C61.9004 15.4002 62.1004 15.3002 62.4004 15.2002C62.4004 15.2002 62.6004 15.2002 62.5004 15.2002C62.5004 15.2002 62.5004 15.2002 62.5004 15.1002C62.5004 15.0002 62.5004 15.0002 62.3004 15.0002C62.1004 15.0002 62.0004 15.0002 61.9004 15.3002L60.9004 15.0002C61.2004 14.4002 61.6004 14.2002 62.3004 14.2002C63.0004 14.2002 63.5004 14.5002 63.5004 15.1002C63.5004 15.7002 63.3004 15.8002 63.0004 15.9002C62.9004 15.9002 62.8004 16.0002 62.8004 16.3002H61.7004L61.9004 16.1002ZM61.6004 16.6002H63.3004V24.0002H61.6004V16.6002Z" fill="#EC1C24"/>
<path d="M68.7 16.6001H70.4V24.0001H69.1L66.2 20.0001V24.0001H64.5V16.6001H65.8L68.7 20.6001V16.6001Z" fill="#EC1C24"/>
<path d="M75.7002 16.6001H77.4002V24.0001H75.7002V21.1001H73.4002V24.0001H71.7002V16.6001H73.4002V19.4001H75.7002V16.6001Z" fill="#EC1C24"/>
<path d="M81.2002 16.6002H82.9002V21.5002C82.9002 22.2002 83.3002 22.5002 84.1002 22.5002C84.9002 22.5002 85.3002 22.2002 85.3002 21.5002V16.6002H87.0002V21.6002C87.0002 22.4002 86.7002 23.0002 86.2002 23.4002C85.7002 23.9002 85.0002 24.1002 84.2002 24.1002C83.4002 24.1002 82.7002 23.9002 82.2002 23.4002C81.7002 22.9002 81.4002 22.3002 81.4002 21.6002V16.6002H81.2002ZM83.5002 16.1002C83.5002 15.4002 83.7002 15.3002 84.0002 15.2002C84.0002 15.2002 84.2002 15.2002 84.1002 15.2002C84.1002 15.2002 84.1002 15.2002 84.1002 15.1002C84.1002 15.0002 84.1002 15.0002 83.9002 15.0002C83.7002 15.0002 83.6002 15.0002 83.5002 15.3002L82.5002 15.0002C82.8002 14.4002 83.2002 14.2002 83.9002 14.2002C84.6002 14.2002 85.1002 14.5002 85.1002 15.1002C85.1002 15.7002 84.9002 15.8002 84.6002 15.9002C84.5002 15.9002 84.4002 16.0002 84.4002 16.3002H83.3002L83.5002 16.1002Z" fill="#EC1C24"/>
<path d="M94.2 16.6001L91.7 21.2001V24.0001H90V21.2001L87.5 16.6001H89.4L90.8 19.5001L92.2 16.6001H94.1H94.2Z" fill="#EC1C24"/>
<path d="M9.6998 42.6999L5.7998 30.8999H8.7998L11.3998 39.5999L13.9998 30.8999H16.9998L13.0998 42.6999H9.6998Z" fill="#EC1C24"/>
<path d="M18.4 29.9999H16.5C16.5 27.2999 18.2 26.9999 19.6 27.8999C20.2 28.1999 20.3 28.1999 20.3 27.4999H22.2C22.2 30.1999 20.5 30.4999 19.1 29.5999C18.6 29.2999 18.4 29.2999 18.4 29.9999ZM18 30.8999H20.7V42.6999H18V30.8999Z" fill="#EC1C24"/>
<path d="M29.3002 30.8999H32.0002V42.6999H30.0002L25.4002 36.2999V42.6999H22.7002V30.8999H24.7002L29.3002 37.2999V30.8999Z" fill="#EC1C24"/>
<path d="M40.4996 30.8999H43.1996V42.6999H40.4996V37.9999H36.7996V42.6999H34.0996V30.8999H36.7996V35.3999H40.4996V30.8999Z" fill="#EC1C24"/>
<path d="M52.0994 40.0999H56.2994V42.6999H49.3994V30.8999H52.0994V40.0999Z" fill="#EC1C24"/>
<path d="M63.2 42.9C61.5 42.9 60 42.3 58.8 41.1C57.6 39.9 57 38.5 57 36.7C57 34.9 57.6 33.5 58.8 32.3C60 31.1 61.5 30.5 63.2 30.5C64.9 30.5 66.4 31.1 67.6 32.3C68.8 33.5 69.4 34.9 69.4 36.7C69.4 38.5 68.8 39.9 67.6 41.1C66.4 42.3 64.9 42.9 63.2 42.9ZM63.2 40.3C64.2 40.3 65 40 65.6 39.3C66.3 38.6 66.6 37.8 66.6 36.8C66.6 35.8 66.3 34.9 65.6 34.3C64.9 33.6 64.1 33.3 63.2 33.3C62.3 33.3 61.4 33.6 60.7 34.3C60 35 59.7 35.8 59.7 36.8C59.7 37.8 60 38.7 60.7 39.3C61.4 40 62.2 40.3 63.2 40.3Z" fill="#EC1C24"/>
<path d="M77.3998 30.8999H80.0998V42.6999H78.0998L73.4998 36.2999V42.6999H70.7998V30.8999H72.7998L77.3998 37.2999V30.8999Z" fill="#EC1C24"/>
<path d="M93.8996 36.1V37.1C93.8996 38.9 93.2996 40.3 92.1996 41.3C91.0996 42.3 89.6996 42.9 87.9996 42.9C86.2996 42.9 84.5996 42.3 83.3996 41.1C82.1996 39.9 81.5996 38.5 81.5996 36.7C81.5996 34.9 82.1996 33.5 83.3996 32.3C84.5996 31.1 86.0996 30.5 87.7996 30.5C89.4996 30.5 91.9996 31.6 92.9996 33.2L90.6996 34.5C90.1996 33.7 89.0996 33.1 87.7996 33.1C86.4996 33.1 85.9996 33.4 85.2996 34.1C84.5996 34.8 84.2996 35.6 84.2996 36.7C84.2996 37.8 84.5996 38.6 85.2996 39.2C85.9996 39.8 86.8996 40.2 87.9996 40.2C89.0996 40.2 90.5996 39.6 90.9996 38.4H87.7996V36H93.6996L93.8996 36.1Z" fill="#EC1C24"/>
<path d="M80.6002 7.7998H71.7002V11.6998H80.6002V7.7998Z" fill="#EC1C24"/>
<path d="M85.1998 7.7998H81.2998V11.6998H85.1998V7.7998Z" fill="#EC1C24"/>
<path d="M88.5998 7.7998H85.7998V11.6998H88.5998V7.7998Z" fill="#EC1C24"/>
<path d="M91.0998 7.7998H89.2998V11.6998H91.0998V7.7998Z" fill="#EC1C24"/>
<path d="M92.9002 7.7998H91.7002V11.6998H92.9002V7.7998Z" fill="#EC1C24"/>
<path d="M94.2006 7.7998H93.6006V11.6998H94.2006V7.7998Z" fill="#EC1C24"/>
<path d="M19.2998 11.7002L28.2998 11.7002V7.8002L19.2998 7.8002V11.7002Z" fill="#EC1C24"/>
<path d="M14.6996 11.7002H18.5996V7.8002H14.6996V11.7002Z" fill="#EC1C24"/>
<path d="M11.2 11.7002H14V7.8002H11.2V11.7002Z" fill="#EC1C24"/>
<path d="M8.7 11.7002H10.5V7.8002H8.7V11.7002Z" fill="#EC1C24"/>
<path d="M6.89961 11.7002H8.09961V7.8002H6.89961V11.7002Z" fill="#EC1C24"/>
<path d="M5.49961 11.7002H6.09961L6.09961 7.8002H5.49961V11.7002Z" fill="#EC1C24"/>
</svg>
