<?xml version="1.0" encoding="utf-8"?>
<!-- Generator: Adobe Illustrator 26.3.0, SVG Export Plug-In . SVG Version: 6.00 Build 0)  -->
<svg version="1.1" id="Layer_1" xmlns="http://www.w3.org/2000/svg" xmlns:xlink="http://www.w3.org/1999/xlink" x="0px" y="0px"
	 viewBox="0 0 905 905" style="enable-background:new 0 0 905 905;" xml:space="preserve">
<style type="text/css">
	.st0{fill:#FFFFFF;}
	.st1{fill:#00933E;}
</style>
<g>
	<circle class="st0" cx="452.5" cy="452.5" r="432.2"/>
	<path class="st1" d="M58.3,629.9C126,780.1,277,884.7,452.5,884.7S779,780.1,846.7,629.9H58.3z"/>
	<path class="st1" d="M144.4,206.8l227.3,269.9c0.7,0.8,2,0.8,2.7-0.1l70.7-93.4c0.5-0.7,0.5-1.6-0.1-2.3l-71.2-84l-229.2-90.4
		C144.4,206.4,144.3,206.6,144.4,206.8z"/>
	<path class="st1" d="M452.5,2.5C204,2.5,2.5,204,2.5,452.5s201.5,450,450,450s450-201.5,450-450S701,2.5,452.5,2.5z M452.5,868.7
		c-176.4,0-327.2-109.7-387.8-264.7h313.8c1.6,0,2-2.1,0.5-2.7l-77-29.6H53.6c-11.3-37.8-17.3-77.8-17.3-119.2
		c0-229.9,186.4-416.2,416.2-416.2s416.2,186.4,416.2,416.2c0,41.4-6.1,81.4-17.3,119.2h-251l-77,29.6c-1.4,0.6-1,2.7,0.5,2.7h316.3
		C779.7,759,628.9,868.7,452.5,868.7z"/>
	<path class="st1" d="M512.4,569.8l89.5-120.5c0.6-0.8,1.5-1.2,2.5-1.2h141.7c1.2,0,1.5,1.7,0.4,2l-78.5,22.7l-154.1,98.4
		C512.9,571.8,511.8,570.7,512.4,569.8z"/>
	<path class="st1" d="M635.3,170.6l92,68.4c0.6,0.4,0.7,1.3,0.3,1.9l-264,356.5c-0.4,0.6-1.3,0.7-1.8,0.3l-93.9-68.4
		c-0.6-0.4-0.7-1.3-0.3-1.9l265.8-356.5C633.9,170.3,634.7,170.2,635.3,170.6z"/>
	<g>
		<path class="st0" d="M539.4,725.2c0,13,0,25.3,0,37.6c0,0.6-0.3,1.7-0.5,1.7c-3.2,0.2-6.6,0.8-9.7,0.2c-1-0.2-2.2-3.2-2.3-4.9
			c-0.3-8.3-0.4-16.7-0.3-25.1c0-2.5-0.9-3.5-3.3-3.5c-4.3,0-8.6,0.2-12.9,0.1c-2.9,0-3.9,1.2-3.8,4.1c0.2,8.5-0.1,17,0.1,25.5
			c0.1,3.1-0.9,4.2-4.1,4.1c-7.5-0.2-15-0.1-22.5,0c-3,0-4.4-0.8-4.4-4.1c0.1-8.6-0.4-17.3-0.1-25.9c0.2-5.8-2.5-9.6-7.4-11.7
			c-10.8-4.6-21.9-4.7-32.9-0.5c-5.9,2.3-8.9,6.5-8.7,13.2c0.3,8.4,0,16.8,0.1,25.1c0,2.7-0.7,3.9-3.6,3.8c-7.9-0.2-15.7-0.2-23.6,0
			c-3.2,0.1-3.8-1.3-3.8-4.1c0.1-8.2-0.1-16.5,0.1-24.8c0.1-3.8-1.3-5.3-4.9-5.1c-3.5,0.1-7.1,0.2-10.7,0.1
			c-3.6-0.1-4.8,1.3-4.7,4.9c0.3,8.1-0.1,16.3,0.2,24.4c0.1,3.6-1.1,4.6-4.6,4.5c-8.1-0.2-8.1,0-8.1-8c0-9.3,0.1-18.5-0.1-27.8
			c-0.1-3.2,1.1-4.3,4.2-4.2c8.1,0.1,16.2,0.1,24.4,0c1.9,0,4.2,0.3,4.2-2.5c0-2.9-2.3-2.5-4.1-2.5c-11.4,0-22.9,0-34.3,0
			c-2.1,0-4.2,0.1-4.3-2.8c-0.1-3.1,1.9-3.4,4.3-3.3c4.5,0.3,8.9,0.6,12.1-3.7c0.6-0.8,2.6-0.7,3.9-0.8c6.1-0.1,12.2,0.1,18.3-0.1
			c1.4,0,2.7-1.2,4.1-1.8c1.3-0.5,2.6-1.5,4-1.5c34.5,0,69,0.1,103.6,0.2c1,0,2.5,0.1,2.8,0.6c1.6,3.2,4.4,2.5,7,2.5
			c4.3,0,8.6,0.1,12.9,0c3.7-0.1,6.8,0.5,10.1,3c2.4,1.8,6.7,1.2,10.2,1.5c2.8,0.3,4.3,2.4,2.9,4.6c-0.6,0.9-2.5,1.4-3.9,1.5
			c-10.9,0.1-21.8,0-32.7,0.2c-2,0-5.6-1.5-5.7,2.4c-0.1,3.9,3.7,2.4,5.6,2.5c7.5,0.3,15,0.1,22.5,0.1
			C536.1,725.2,537.5,725.2,539.4,725.2z M485.2,738.1c0,4.6,0.1,9.1,0,13.7c-0.1,3.5,2.1,3.4,4.5,3.5c2.5,0,4.6,0,4.6-3.5
			c-0.1-9.3-0.1-18.5,0-27.8c0-3.6-2.2-3.7-4.8-3.7c-2.5,0-4.5,0.4-4.3,3.7C485.3,728.7,485.2,733.4,485.2,738.1z M408.1,737.8
			c0,4.8,0,9.6,0,14.4c0,2.9,1.9,3.1,4.1,3c2.1-0.1,4.7,0.4,4.8-2.8c0.1-9.5,0.1-19,0.2-28.4c0-3.7-2.5-3.7-5.2-3.7
			c-2.9,0-4,1.3-3.9,4.2C408.2,728.9,408.1,733.4,408.1,737.8z"/>
		<path class="st0" d="M451.1,697.4c-23.1,0-46.2,0-69.3-0.1c-1.3,0-3.5-0.8-3.9-1.8c-0.8-2.2-0.3-4.2,3-4.2
			c7.1,0.1,14.2-0.3,21.3,0c5.1,0.3,8.8-1.1,11.6-5.4c1.8-2.9,3.9-3.7,6.5-0.5c0.8,1,2.6,1.6,4,1.6c17.9,0.1,35.8,0.1,53.7,0
			c1.5,0,3.4-1.1,4.5-2.2c1.7-1.6,3.4-2.2,4.7-0.1c3.8,6.6,9.9,6.9,16.5,6.6c5.7-0.3,11.4-0.1,17.1,0c2,0,3.8,0.2,3.9,3
			c0,2.9-1.6,3.2-3.9,3.1C497.5,697.3,474.3,697.4,451.1,697.4z"/>
		<path class="st0" d="M426.3,654.9c4.5,0.8,7.9,1.8,11.4,1.8c9.4,0.2,18.8,0.2,28.2,0c3-0.1,5.9-1.1,8.8-1.7c0-0.3-0.1-0.7-0.1-1
			c0.3,0.1,0.9,0.1,1,0.4c4.2,6.5,10.5,6.9,17.4,6.4c2.1-0.2,5.7-1.5,5.8,2.7c0,4.3-3.5,3.2-5.9,3.2c-28.4,0-56.9,0-85.3-0.1
			c-1.9,0-3.9,0.3-3.9-2.7c0-2.9,1.5-3.4,3.9-3.3c1,0.1,2-0.1,3,0C417.4,661.7,423.3,660.3,426.3,654.9z"/>
		<path class="st0" d="M451,680.6c-7.7,0-15.5,0-23.2,0c-2,0-3.7,0.1-3.8-2.8c-0.1-3,1.8-3.1,3.6-3.1c15.8-0.1,31.7-0.1,47.5-0.1
			c1.9,0,3,0.7,3,2.9c0,2.4-1,3-3.3,3c-8-0.1-16,0-23.9,0C451,680.5,451,680.6,451,680.6z"/>
		<g>
			<path class="st0" d="M306.7,814.4l-11.1-31.2c-0.7-1.9,0.3-3.2,2.5-3.2h5.3c1.7,0,2.9,0.8,3.4,2.4l7.7,23.1l7.7-23.1
				c0.5-1.6,1.7-2.4,3.4-2.4h5.3c2.2,0,3.2,1.2,2.5,3.2l-11.1,31.2c-0.6,1.6-1.7,2.3-3.5,2.3h-8.8
				C308.5,816.7,307.3,816,306.7,814.4z"/>
			<path class="st0" d="M340.2,770.5c3.4,0,5.1,2.1,6.7,2.1c0.7,0,1.4-0.5,2-1.8l4.3,1.7c-1.4,2.8-4,4.4-6.3,4.4
				c-3.3,0-4.8-2.1-6.7-2.1c-1.1,0-1.5,0.2-2.3,1.9l-4.3-1.9C335.2,771.9,337.5,770.5,340.2,770.5z M338.4,780.1h10.8v36.7h-10.8
				V780.1z"/>
			<path class="st0" d="M358.8,780.1h5.2c1.6,0,2.8,0.6,3.7,1.9l11.4,18.1v-17.2c0-1.8,1.1-2.8,3-2.8h4.6c2,0,3,1,3,2.8v31
				c0,1.8-1.1,2.8-3,2.8h-5.2c-1.6,0-2.8-0.6-3.7-1.9l-11.4-18v17.1c0,1.8-1.1,2.8-3,2.8h-4.6c-2,0-3-1-3-2.8v-31
				C355.8,781,356.9,780.1,358.8,780.1z"/>
			<path class="st0" d="M400.9,780.1h4.9c2,0,3,1,3,2.8v10.5h12.5v-10.5c0-1.8,1.1-2.8,3-2.8h4.9c2,0,3,1,3,2.8v31
				c0,1.8-1.1,2.8-3,2.8h-4.9c-2,0-3-1-3-2.8v-12.2h-12.5v12.2c0,1.8-1.1,2.8-3,2.8h-4.9c-2,0-3-1-3-2.8v-31
				C397.8,781,398.9,780.1,400.9,780.1z"/>
			<path class="st0" d="M460.2,780.1h4.9c2,0,3,1,3,2.8v25.6h13.5c2,0,3,1,3,2.8v2.6c0,1.8-1.1,2.8-3,2.8h-21.4c-2,0-3-1-3-2.8v-31
				C457.1,781,458.2,780.1,460.2,780.1z"/>
			<path class="st0" d="M487.6,798.4c0-11.3,7.3-19,19.2-19c11.9,0,19.2,7.7,19.2,19s-7.3,19-19.2,19
				C494.8,817.3,487.6,809.6,487.6,798.4z M514.9,798.4c0-6.5-3.2-10.6-8.1-10.6c-5,0-8.1,4-8.1,10.6s3.2,10.6,8.1,10.6
				C511.7,809,514.9,804.9,514.9,798.4z"/>
			<path class="st0" d="M535.2,780.1h5.2c1.6,0,2.8,0.6,3.7,1.9l11.4,18.1v-17.2c0-1.8,1.1-2.8,3-2.8h4.6c2,0,3,1,3,2.8v31
				c0,1.8-1.1,2.8-3,2.8h-5.2c-1.6,0-2.8-0.6-3.7-1.9l-11.4-18v17.1c0,1.8-1.1,2.8-3,2.8h-4.6c-2,0-3-1-3-2.8v-31
				C532.2,781,533.2,780.1,535.2,780.1z"/>
			<path class="st0" d="M591.9,779.4c6.3,0,12,2.3,15.7,6.4c1.4,1.6,0.8,3.1-1.1,3.9l-3.6,1.6c-1.7,0.7-2.9,0.3-4.2-1
				c-1.6-1.5-3.7-2.4-6.2-2.4c-5,0-9,3.6-9,10.6c0,7.1,4.2,10.6,9.3,10.6c2.9,0,5.2-0.8,6.4-2.4v-3.6h-4c-2,0-3-1-3-2.8v-1.3
				c0-1.8,1.1-2.8,3-2.8h11.3c2,0,3,1,3,2.8v9.6c0,1.4-0.3,2.5-1.4,3.5c-3.7,3.5-9,5.5-15.5,5.5c-12.1,0-20.2-7.1-20.2-19
				C572.4,786.6,580.2,779.4,591.9,779.4z"/>
		</g>
	</g>
</g>
</svg>
